<svg width="20" height="20" viewBox="0 0 20 20" fill="none" xmlns="http://www.w3.org/2000/svg">
<g clip-path="url(#clip0_5795_123126)">
<circle cx="10" cy="10" r="10" fill="#043CAE"/>
<rect x="-2" y="1.5" width="24" height="16.8" rx="1.8" fill="white"/>
<mask id="mask0_5795_123126" style="mask-type:luminance" maskUnits="userSpaceOnUse" x="-2" y="1" width="24" height="18">
<rect x="-2" y="1.5" width="24" height="16.8" rx="1.8" fill="white"/>
</mask>
<g mask="url(#mask0_5795_123126)">
<rect x="-2" y="1.5" width="24" height="16.8" fill="#043CAE"/>
<path fill-rule="evenodd" clip-rule="evenodd" d="M9.19219 5.09173L10.0003 4.85977L10.8084 5.09173L10.5717 4.29977L10.8084 3.50781L10.0003 3.73977L9.19219 3.50781L9.42888 4.29977L9.19219 5.09173ZM9.19219 16.2914L10.0003 16.0595L10.8084 16.2914L10.5717 15.4995L10.8084 14.7075L10.0003 14.9395L9.19219 14.7075L9.42888 15.4995L9.19219 16.2914ZM15.7141 10.4601L14.906 10.692L15.1427 9.90005L14.906 9.10809L15.7141 9.34005L16.5222 9.10809L16.2855 9.90005L16.5222 10.692L15.7141 10.4601ZM3.47754 10.692L4.28566 10.4601L5.09378 10.692L4.85709 9.90005L5.09378 9.10809L4.28566 9.34005L3.47754 9.10809L3.71423 9.90005L3.47754 10.692ZM14.949 7.65947L14.1409 7.89143L14.3776 7.09947L14.1409 6.30751L14.949 6.53947L15.7571 6.30751L15.5204 7.09947L15.7571 7.89143L14.949 7.65947ZM4.24351 13.4917L5.05163 13.2598L5.85975 13.4917L5.62306 12.6998L5.85975 11.9078L5.05163 12.1398L4.24351 11.9078L4.4802 12.6998L4.24351 13.4917ZM12.8572 5.61036L12.0491 5.84232L12.2858 5.05036L12.0491 4.2584L12.8572 4.49036L13.6653 4.2584L13.4286 5.05036L13.6653 5.84232L12.8572 5.61036ZM6.33442 15.5417L7.14255 15.3097L7.95067 15.5417L7.71397 14.7497L7.95067 13.9577L7.14255 14.1897L6.33442 13.9577L6.57112 14.7497L6.33442 15.5417ZM14.949 13.2598L14.1409 13.4917L14.3776 12.6998L14.1409 11.9078L14.949 12.1398L15.7571 11.9078L15.5204 12.6998L15.7571 13.4917L14.949 13.2598ZM4.24351 7.89143L5.05163 7.65947L5.85975 7.89143L5.62306 7.09947L5.85975 6.30751L5.05163 6.53947L4.24351 6.30751L4.4802 7.09947L4.24351 7.89143ZM12.8572 15.3097L12.0491 15.5417L12.2858 14.7497L12.0491 13.9577L12.8572 14.1897L13.6653 13.9577L13.4286 14.7497L13.6653 15.5417L12.8572 15.3097ZM6.33442 5.84232L7.14255 5.61036L7.95067 5.84232L7.71397 5.05036L7.95067 4.2584L7.14255 4.49036L6.33442 4.2584L6.57112 5.05036L6.33442 5.84232Z" fill="#FFD429"/>
</g>
</g>
<rect x="0.5" y="0.5" width="19" height="19" rx="9.5" stroke="#FAFBFE"/>
<defs>
<clipPath id="clip0_5795_123126">
<rect width="20" height="20" rx="10" fill="white"/>
</clipPath>
</defs>
</svg>
